<?xml version="1.0" encoding="UTF-8" standalone="no"?>
<svg
   xmlns:dc="http://purl.org/dc/elements/1.1/"
   xmlns:cc="http://creativecommons.org/ns#"
   xmlns:rdf="http://www.w3.org/1999/02/22-rdf-syntax-ns#"
   xmlns:svg="http://www.w3.org/2000/svg"
   xmlns="http://www.w3.org/2000/svg"
   xmlns:sodipodi="http://sodipodi.sourceforge.net/DTD/sodipodi-0.dtd"
   xmlns:inkscape="http://www.inkscape.org/namespaces/inkscape"
   width="176px"
   height="165px"
   viewBox="0 0 176 165"
   version="1.1"
   id="svg9"
   sodipodi:docname="logo-color.svg"
   inkscape:version="0.92.4 (5da689c313, 2019-01-14)">
  <metadata
     id="metadata15">
    <rdf:RDF>
      <cc:Work
         rdf:about="">
        <dc:format>image/svg+xml</dc:format>
        <dc:type
           rdf:resource="http://purl.org/dc/dcmitype/StillImage" />
        <dc:title>Combined Shape</dc:title>
      </cc:Work>
    </rdf:RDF>
  </metadata>
  <defs
     id="defs13" />
  <sodipodi:namedview
     pagecolor="#ffffff"
     bordercolor="#666666"
     borderopacity="1"
     objecttolerance="10"
     gridtolerance="10"
     guidetolerance="10"
     inkscape:pageopacity="0"
     inkscape:pageshadow="2"
     inkscape:window-width="952"
     inkscape:window-height="1048"
     id="namedview11"
     showgrid="false"
     inkscape:zoom="1.430303"
     inkscape:cx="57.866525"
     inkscape:cy="82.5"
     inkscape:window-x="962"
     inkscape:window-y="26"
     inkscape:window-maximized="0"
     inkscape:current-layer="svg9" />
  <!-- Generator: Sketch 60.1 (88133) - https://sketch.com -->
  <title
     id="title2">Combined Shape</title>
  <desc
     id="desc4">Created with Sketch.</desc>
  <g
     id="Page-1"
     stroke-width="1"
     stroke="none"
     fill-rule="evenodd"
     fill="none">
    <g
       id="Artboard"
       fill="#000000">
      <path
         d="M160.864488,36.2260275 C170.418055,49.4219839 176,65.349867 176,82.5 C176,128.063492 136.601058,165 88,165 C67.6296796,165 48.8759197,158.511264 33.9621209,147.61823 L65.542,76.6881658 Z M49.346,83.5631658 L24.4224343,139.540665 C14.2083747,129.537409 6.65383063,117.127972 2.82358298,103.310587 L49.346,83.5631658 Z M99,121 C94.0294373,121 90,125.029437 90,130 C90,134.970563 94.0294373,139 99,139 C103.970563,139 108,134.970563 108,130 C108,125.029437 103.970563,121 99,121 Z M71.859,32.9991658 L56.503,67.4891658 L0.490863506,91.2657599 C0.216315068,88.8286784 0.0549504356,86.3599525 0.0117894858,83.8642884 L0,82.5 C0,63.9268348 6.54669948,46.7871666 17.5947464,32.9985132 L71.859,32.9991658 Z M137.756,32.9991658 L72.699,60.6141658 L84.994,32.9991658 L137.756,32.9991658 Z M86.546,0.0101658065 L77.201,20.9991658 L29.3438846,20.9982191 C44.5757085,8.2215341 64.5823225,0.344884615 86.5447591,0.0110526429 L86.546,0.0101658065 Z M99.3813517,0.683653739 C117.423584,2.86790031 133.753044,10.1749272 146.656115,20.9982191 L90.336,20.9991658 Z"
         id="Combined-Shape"
         style="fill:#057d9f;fill-opacity:1" />
    </g>
  </g>
</svg>
